<svg width="1200" height="720" viewBox="0 0 1200 720" xmlns="http://www.w3.org/2000/svg">
  <defs>
    <linearGradient id="bg2" x1="0" y1="0" x2="1" y2="1">
      <stop offset="0%" stop-color="#0b1020"/>
      <stop offset="100%" stop-color="#1d2f4a"/>
    </linearGradient>
    <linearGradient id="mint" x1="0" y1="0" x2="1" y2="1">
      <stop offset="0%" stop-color="#7be7c6"/>
      <stop offset="100%" stop-color="#38c7d3"/>
    </linearGradient>
  </defs>
  <rect width="1200" height="720" fill="url(#bg2)"/>
  <circle cx="180" cy="120" r="60" fill="#253957" opacity="0.5"/>
  <circle cx="1050" cy="610" r="90" fill="#253957" opacity="0.45"/>
  <rect x="430" y="60" width="340" height="600" rx="44" fill="#0e1728" stroke="#324466" stroke-width="6"/>
  <rect x="455" y="105" width="290" height="460" rx="26" fill="#111c30"/>
  <text x="500" y="155" fill="#d6e7ff" font-size="26" font-family="Inter, Arial, sans-serif">HealthPulse</text>
  <path d="M490 225 L530 225 L548 200 L574 255 L600 215 L622 225 L700 225" stroke="url(#mint)" stroke-width="7" fill="none" stroke-linecap="round"/>
  <rect x="490" y="280" width="220" height="78" rx="14" fill="#1a2740"/>
  <text x="510" y="330" fill="#8fd8db" font-size="34" font-family="Inter, Arial, sans-serif">72 bpm</text>
  <rect x="490" y="380" width="220" height="140" rx="14" fill="#1a2740"/>
  <circle cx="550" cy="450" r="32" fill="#2d3f63"/>
  <path d="M550 432 v36 M532 450 h36" stroke="#7be7c6" stroke-width="8" stroke-linecap="round"/>
  <rect x="70" y="140" width="280" height="440" rx="34" fill="#101a2f" stroke="#304263" stroke-width="6"/>
  <rect x="95" y="180" width="230" height="330" rx="18" fill="#15223a"/>
  <text x="115" y="220" fill="#d6e7ff" font-size="20" font-family="Inter, Arial, sans-serif">Appointment</text>
  <rect x="115" y="248" width="190" height="12" rx="6" fill="#2f4060"/>
  <rect x="115" y="272" width="150" height="12" rx="6" fill="#293954"/>
  <rect x="115" y="312" width="190" height="168" rx="14" fill="#1d2d49"/>
  <rect x="850" y="140" width="280" height="440" rx="34" fill="#101a2f" stroke="#304263" stroke-width="6"/>
  <rect x="875" y="180" width="230" height="330" rx="18" fill="#15223a"/>
  <text x="905" y="220" fill="#d6e7ff" font-size="20" font-family="Inter, Arial, sans-serif">Vitals</text>
  <path d="M905 305 L930 286 L955 305 L980 272 L1010 305 L1035 290 L1070 305" stroke="url(#mint)" stroke-width="6" fill="none" stroke-linecap="round"/>
</svg>
