<svg width="1200" height="720" viewBox="0 0 1200 720" xmlns="http://www.w3.org/2000/svg">
  <defs>
    <linearGradient id="bg4" x1="0" y1="0" x2="1" y2="1">
      <stop offset="0%" stop-color="#0b111a"/>
      <stop offset="100%" stop-color="#132533"/>
    </linearGradient>
    <linearGradient id="cyan" x1="0" y1="0" x2="1" y2="1">
      <stop offset="0%" stop-color="#7ce3ff"/>
      <stop offset="100%" stop-color="#2fb2e6"/>
    </linearGradient>
  </defs>
  <rect width="1200" height="720" fill="url(#bg4)"/>
  <rect x="70" y="70" width="1060" height="580" rx="24" fill="#0f1a27" stroke="#2c3f53"/>
  <rect x="100" y="110" width="250" height="500" rx="14" fill="#132133"/>
  <rect x="380" y="110" width="360" height="500" rx="14" fill="#132133"/>
  <rect x="770" y="110" width="330" height="500" rx="14" fill="#132133"/>
  <text x="120" y="150" fill="#9adfff" font-size="23" font-family="Inter, Arial, sans-serif">Workspace</text>
  <rect x="120" y="180" width="200" height="14" rx="7" fill="#2f455d"/>
  <rect x="120" y="210" width="160" height="14" rx="7" fill="#283d54"/>
  <rect x="120" y="255" width="210" height="80" rx="12" fill="#1a2a3f"/>
  <rect x="120" y="350" width="210" height="80" rx="12" fill="#1a2a3f"/>
  <rect x="120" y="445" width="210" height="80" rx="12" fill="#1a2a3f"/>
  <text x="410" y="150" fill="#d6ecf8" font-size="23" font-family="Inter, Arial, sans-serif">TeamSync Board</text>
  <rect x="410" y="180" width="300" height="300" rx="12" fill="#1a2a3f"/>
  <rect x="430" y="205" width="260" height="24" rx="12" fill="url(#cyan)"/>
  <rect x="430" y="245" width="220" height="14" rx="7" fill="#3a5672"/>
  <rect x="430" y="270" width="190" height="14" rx="7" fill="#334d67"/>
  <rect x="430" y="330" width="120" height="36" rx="18" fill="#2fb2e6"/>
  <rect x="410" y="500" width="300" height="90" rx="12" fill="#1a2a3f"/>
  <path d="M430 565 L470 545 L510 552 L560 530 L620 540 L680 518" stroke="url(#cyan)" stroke-width="6" fill="none" stroke-linecap="round"/>
  <text x="800" y="150" fill="#d6ecf8" font-size="23" font-family="Inter, Arial, sans-serif">Activity</text>
  <rect x="800" y="185" width="270" height="82" rx="12" fill="#1a2a3f"/>
  <rect x="800" y="282" width="270" height="82" rx="12" fill="#1a2a3f"/>
  <rect x="800" y="379" width="270" height="82" rx="12" fill="#1a2a3f"/>
  <rect x="800" y="476" width="270" height="82" rx="12" fill="#1a2a3f"/>
</svg>
